<svg width="342" height="95" viewBox="0 0 342 95" fill="none" xmlns="http://www.w3.org/2000/svg">
<path d="M2.81359 44.6583L3.06692 44.6859C3.14095 44.6929 3.20936 44.7276 3.25787 44.7827C3.30638 44.8379 3.33125 44.9093 3.32727 44.982C3.29913 45.643 1.86364 46.6277 1.45551 47.2612C1.39767 47.3534 1.37316 47.4618 1.38592 47.5692C1.39868 47.6767 1.44797 47.7767 1.52588 47.8534L47.975 93.3973C48.0916 93.5087 48.2478 93.5712 48.4098 93.5712C48.5719 93.5712 48.7266 93.5087 48.8406 93.3973L95.4375 47.7983C95.4847 47.7523 95.5222 47.6975 95.5478 47.6373C95.5734 47.577 95.5865 47.5124 95.5865 47.4471C95.5865 47.3819 95.5734 47.3173 95.5478 47.257C95.5222 47.1968 95.4847 47.142 95.4375 47.096L48.9461 1.60033C48.8397 1.49497 48.6951 1.43464 48.5428 1.43207C48.3905 1.4295 48.2425 1.48489 48.1299 1.58656L46.1385 3.43888C46.0976 3.47635 46.0486 3.50431 45.9951 3.52069C45.9416 3.53708 45.8851 3.54147 45.8296 3.53353C45.7742 3.52559 45.7213 3.50553 45.6749 3.47484C45.6284 3.44415 45.5897 3.40362 45.5615 3.35625C45.4911 3.23689 45.4817 3.06934 45.5333 2.85358L48.3269 0.0578708C48.3452 0.0395487 48.3671 0.0249924 48.3913 0.0150555C48.4155 0.00511846 48.4414 0 48.4676 0C48.4938 0 48.5198 0.00511846 48.5439 0.0150555C48.5681 0.0249924 48.59 0.0395487 48.6084 0.0578708L96.8448 47.2612C96.9153 47.3309 96.9548 47.4249 96.9548 47.5229C96.9548 47.6209 96.9153 47.7149 96.8448 47.7846L48.8546 94.74C48.8151 94.7794 48.7679 94.8106 48.7157 94.8319C48.6636 94.8532 48.6075 94.8641 48.5506 94.8641C48.4937 94.8641 48.4373 94.8532 48.3844 94.8319C48.3315 94.8106 48.2833 94.7794 48.2424 94.74L0.27335 47.7914C0.201868 47.7212 0.161255 47.6262 0.159945 47.5262C0.158634 47.4262 0.196729 47.3288 0.266315 47.2543L2.81359 44.6583Z" fill="#9CA3AF"/>
<path d="M2.81359 44.6583L45.5333 2.85358C45.4817 3.06934 45.4911 3.23689 45.5615 3.35625C45.5897 3.40362 45.6284 3.44415 45.6749 3.47484C45.7213 3.50553 45.7742 3.52559 45.8296 3.53353C45.8851 3.54147 45.9416 3.53708 45.9951 3.52069C46.0486 3.50431 46.0976 3.47635 46.1385 3.43888L48.1299 1.58656C48.2425 1.48489 48.3905 1.4295 48.5428 1.43207C48.6951 1.43464 48.8397 1.49497 48.9461 1.60033L95.4375 47.096C95.4847 47.142 95.5222 47.1968 95.5478 47.257C95.5734 47.3173 95.5865 47.3819 95.5865 47.4471C95.5865 47.5124 95.5734 47.577 95.5478 47.6373C95.5222 47.6975 95.4847 47.7523 95.4375 47.7983L48.8406 93.3973C48.7266 93.5087 48.5719 93.5712 48.4098 93.5712C48.2478 93.5712 48.0916 93.5087 47.975 93.3973L1.52588 47.8534C1.44797 47.7767 1.39868 47.6767 1.38592 47.5692C1.37316 47.4618 1.39767 47.3534 1.45551 47.2612C1.86364 46.6277 3.29913 45.643 3.32727 44.982C3.33125 44.9093 3.30638 44.8379 3.25787 44.7827C3.20936 44.7276 3.14095 44.6929 3.06692 44.6859L2.81359 44.6583ZM11.6094 47.5849L11.9612 47.9292L11.5109 47.9912C11.1121 48.0462 11.0512 48.2184 11.3279 48.5076C23.0933 60.6613 35.6889 72.1885 47.5317 83.9566C48.2401 84.6636 48.9531 84.6658 49.6708 83.9635L85.2976 49.0654C85.4486 48.9223 85.5517 48.7348 85.5931 48.5283L85.9098 47.0478C85.9316 46.9506 85.9282 46.8497 85.8999 46.7547C85.8716 46.6596 85.8193 46.5733 85.7479 46.5038C73.8982 34.9904 62.0789 23.4404 50.2901 11.8536C48.2002 9.80154 47.3206 11.1787 45.7796 12.6868C31.3731 26.8168 20.166 37.7196 12.1583 45.3951C11.464 46.0562 11.281 46.7861 11.6094 47.5849Z" fill="#9CA3AF"/>
<path d="M11.9612 47.9292L48.2846 83.385C48.3216 83.4211 48.3654 83.4496 48.4135 83.4692C48.4616 83.4887 48.5129 83.4987 48.5647 83.4987C48.6164 83.4987 48.6674 83.4887 48.7147 83.4692C48.7621 83.4496 48.8048 83.4211 48.8405 83.385L85.4594 47.5849C85.4942 47.548 85.5129 47.4993 85.5116 47.4492C85.5102 47.399 85.489 47.3514 85.4524 47.3163L48.8687 11.5024C48.7959 11.4326 48.6975 11.3942 48.5948 11.3955C48.4921 11.3968 48.3933 11.4376 48.3198 11.5092L11.6094 47.5849C11.281 46.7861 11.464 46.0562 12.1583 45.3951C20.166 37.7196 31.3731 26.8168 45.7796 12.6868C47.3206 11.1787 48.2002 9.80154 50.2901 11.8536C62.0789 23.4404 73.8982 34.9904 85.7479 46.5038C85.8193 46.5733 85.8716 46.6596 85.8999 46.7547C85.9282 46.8497 85.9316 46.9506 85.9098 47.0478L85.5931 48.5283C85.5517 48.7348 85.4486 48.9223 85.2976 49.0654L49.6708 83.9635C48.9531 84.6658 48.2401 84.6636 47.5317 83.9566C35.6889 72.1885 23.0933 60.6613 11.3279 48.5076C11.0512 48.2184 11.1121 48.0462 11.5109 47.9912L11.9612 47.9292Z" fill="#9CA3AF"/>
<path d="M147.931 17.9545C147.023 19.2904 145.116 20.7847 143.962 21.7762C143.892 21.8375 143.799 21.8696 143.705 21.8657C143.61 21.8619 143.521 21.8224 143.456 21.7556C136.039 14.0639 123.422 21.1771 127.032 31.3753C129.586 38.5711 138.094 38.9705 143.456 34.1297C143.527 34.0677 143.619 34.034 143.714 34.0353C143.809 34.0366 143.9 34.0727 143.969 34.1366L147.945 37.7792C148.009 37.8403 148.046 37.9232 148.049 38.0106C148.051 38.0979 148.019 38.1828 147.959 38.2475C142.119 44.5757 131.226 44.8442 124.64 39.4801C117.596 33.7578 117.413 21.6592 125.041 16.0815C131.979 11.0135 141.345 11.6538 147.861 17.4381C147.934 17.5017 147.981 17.5887 147.994 17.6835C148.007 17.7783 147.985 17.8744 147.931 17.9545ZM127.342 34.1779C122.184 27.5536 127.827 16.8596 136.588 17.5827C139.06 17.7847 141.277 18.8084 143.238 20.6538C143.335 20.7459 143.465 20.7975 143.6 20.7975C143.735 20.7975 143.865 20.7459 143.962 20.6538L146.439 18.2988C146.525 18.2159 146.577 18.1053 146.587 17.9876C146.596 17.8699 146.561 17.753 146.489 17.6584C143.273 13.4924 134.561 12.9209 130.037 14.5942C124.023 16.8206 120.826 20.8719 120.446 26.7479C119.489 41.4839 135.73 46.1526 146.369 38.7846C146.47 38.7148 146.542 38.6132 146.574 38.4974C146.607 38.3817 146.596 38.2592 146.545 38.1511C145.996 36.9851 145.119 36.122 143.913 35.562C143.812 35.5146 143.7 35.4966 143.587 35.51C143.475 35.5234 143.369 35.5677 143.28 35.6377C138.136 39.7899 131.346 39.3217 127.342 34.1779Z" fill="#9CA3AF"/>
<path d="M183.459 27.9736C183.459 29.9911 183.03 31.9887 182.194 33.8526C181.359 35.7165 180.135 37.4101 178.591 38.8366C177.048 40.2632 175.216 41.3948 173.199 42.1668C171.183 42.9388 169.021 43.3362 166.839 43.3362C162.431 43.3362 158.203 41.7177 155.086 38.8366C151.969 35.9556 150.218 32.048 150.218 27.9736C150.218 25.9562 150.648 23.9585 151.483 22.0946C152.319 20.2307 153.543 18.5371 155.086 17.1106C158.203 14.2295 162.431 12.611 166.839 12.611C169.021 12.611 171.183 13.0084 173.199 13.7804C175.216 14.5524 177.048 15.684 178.591 17.1106C180.135 18.5371 181.359 20.2307 182.194 22.0946C183.03 23.9585 183.459 25.9562 183.459 27.9736ZM181.862 31.5819C186.717 10.7587 153.659 7.07467 151.464 26.2383C149.282 45.3125 178.09 47.7708 181.862 31.5819Z" fill="#9CA3AF"/>
<path d="M208.784 33.324C208.583 33.2781 208.388 33.3286 208.2 33.4755C208.126 33.5338 208.078 33.6176 208.065 33.7097C208.052 33.8019 208.075 33.8954 208.13 33.9713L212.943 40.9055C213.206 41.2819 213.103 41.4816 212.634 41.5045L208.397 41.6905C208.265 41.6969 208.132 41.6661 208.015 41.6016C207.898 41.5371 207.802 41.4414 207.736 41.3255C206.315 38.8236 204.546 36.5696 202.43 34.5635L195.957 34.5704C195.867 34.5704 195.781 34.6052 195.718 34.6672C195.654 34.7292 195.619 34.8132 195.619 34.9009V42.3928C195.619 42.4714 195.587 42.5467 195.53 42.6022C195.473 42.6577 195.397 42.6889 195.316 42.6889L188.864 42.6545C188.789 42.6545 188.717 42.6255 188.665 42.5738C188.612 42.5222 188.582 42.4521 188.582 42.3791V13.5612C188.582 13.4711 188.618 13.3846 188.683 13.3202C188.747 13.2558 188.835 13.2188 188.927 13.2169C200.284 12.9759 215.68 11.2958 214.695 25.0746C214.421 28.9514 212.155 31.6025 208.784 33.324ZM206.744 26.8236C209.031 23.36 207.004 19.2628 202.677 19.0287C200.509 18.9094 198.297 18.8359 196.041 18.8084C195.929 18.8084 195.822 18.8512 195.742 18.9274C195.663 19.0035 195.619 19.1069 195.619 19.2146V28.6346C195.619 28.7273 195.655 28.8163 195.721 28.8831C195.787 28.9499 195.876 28.9892 195.971 28.9927C199.074 29.1167 204.872 29.6675 206.744 26.8236Z" fill="#9CA3AF"/>
<path d="M236.755 13.3547C236.291 13.3547 235.894 13.5154 235.566 13.8367C235.529 13.8735 235.502 13.9182 235.486 13.9673C235.47 14.0163 235.466 14.0683 235.474 14.1191C235.482 14.1699 235.503 14.2182 235.533 14.26C235.564 14.3018 235.604 14.3361 235.65 14.36L236.03 14.5529C236.217 14.6464 236.366 14.802 236.453 14.9936L248.232 40.933C248.264 41.0021 248.277 41.0778 248.271 41.1533C248.266 41.2288 248.24 41.3017 248.199 41.3653C248.157 41.4289 248.099 41.4813 248.031 41.5176C247.963 41.554 247.887 41.5732 247.81 41.5734L243.869 41.5941C243.756 41.5945 243.646 41.5628 243.551 41.5029C243.456 41.443 243.381 41.3575 243.335 41.2567L241.132 36.4158C241.108 36.3651 241.071 36.321 241.026 36.2876C240.98 36.2541 240.926 36.2323 240.87 36.2241C240.813 36.2159 240.756 36.2216 240.702 36.2406C240.648 36.2597 240.6 36.2915 240.562 36.3332L240.302 36.6224L226.651 36.4847C226.532 36.4846 226.415 36.5186 226.316 36.5823C226.218 36.646 226.14 36.7366 226.095 36.8428L223.744 42.3446C223.705 42.437 223.638 42.516 223.552 42.5723C223.465 42.6285 223.364 42.6595 223.259 42.6614L216.863 42.6889C216.807 42.6889 216.752 42.6752 216.702 42.6492C216.653 42.6231 216.611 42.5856 216.581 42.5398C216.55 42.4941 216.531 42.4417 216.527 42.3872C216.522 42.3327 216.531 42.2778 216.553 42.2276L229.585 13.6783C229.632 13.5775 229.705 13.4903 229.796 13.4252C229.887 13.3601 229.994 13.3192 230.106 13.3065C232.362 13.0678 234.579 13.0838 236.755 13.3547ZM228.642 30.8795C228.625 30.9203 228.618 30.9647 228.622 31.0087C228.626 31.0527 228.642 31.095 228.667 31.1318C228.692 31.1685 228.726 31.1987 228.766 31.2196C228.806 31.2404 228.85 31.2513 228.895 31.2513L237.55 31.2651C237.595 31.2658 237.64 31.2557 237.68 31.2357C237.72 31.2156 237.754 31.1863 237.78 31.1503C237.805 31.1143 237.822 31.0726 237.827 31.029C237.832 30.9854 237.827 30.9412 237.811 30.9002L233.497 20.5574C233.476 20.5085 233.441 20.4667 233.396 20.4373C233.351 20.4078 233.298 20.3922 233.244 20.3922C233.19 20.3922 233.137 20.4078 233.092 20.4373C233.047 20.4667 233.011 20.5085 232.991 20.5574L228.642 30.8795Z" fill="#9CA3AF"/>
<path d="M277.223 13.2927C275.879 13.4029 275.556 13.8987 275.865 15.1588C276.534 17.8857 275.19 18.7189 273.649 20.5643C270.219 24.6454 266.783 28.7219 263.34 32.7938C262.688 33.5604 262.284 34.4441 262.13 35.4449L261.215 36.7877C261.065 37.0034 261.123 37.1113 261.391 37.1113H276.752C276.855 38.5528 276.707 39.9346 276.309 41.2567C276.277 41.3639 276.21 41.4582 276.119 41.5252C276.027 41.5923 275.916 41.6285 275.802 41.6285L253.84 41.7525C253.679 41.7534 253.519 41.723 253.37 41.6632C253.22 41.6034 253.085 41.5153 252.97 41.404C252.856 41.2926 252.765 41.1602 252.703 41.0144C252.641 40.8686 252.609 40.7122 252.609 40.5543L252.616 38.7915C252.616 38.569 252.693 38.3529 252.834 38.1786C257.922 32.057 263.558 26.0111 268.23 19.6003C268.843 18.7602 268.751 18.1955 267.998 17.5483C267.826 17.4019 267.606 17.3212 267.379 17.321C263.232 17.3577 259.09 17.3118 254.952 17.1833C254.361 17.1695 254.002 17.4427 253.876 18.0027C253.853 18.0993 253.868 18.2008 253.917 18.2873C253.966 18.3739 254.047 18.4393 254.143 18.471L254.727 18.6638L252.152 18.8084C252.103 18.8112 252.054 18.8042 252.008 18.7878C251.962 18.7714 251.92 18.746 251.884 18.7131C251.848 18.6802 251.82 18.6406 251.801 18.5965C251.781 18.5525 251.772 18.5051 251.772 18.4572L251.722 13.6301C251.721 13.5726 251.732 13.5155 251.755 13.462C251.777 13.4086 251.81 13.36 251.852 13.319C251.894 13.2779 251.944 13.2454 251.999 13.2231C252.054 13.2009 252.113 13.1894 252.173 13.1894L277.223 13.2927Z" fill="#9CA3AF"/>
<path d="M281.818 13.2101C285.918 13.6783 290.021 13.7632 294.125 13.4649C294.674 13.4235 295.343 13.5429 296.131 13.8229C296.229 13.8565 296.313 13.9209 296.369 14.0058C296.425 14.0908 296.451 14.1913 296.44 14.2912C296.405 14.663 296.131 14.7594 295.765 14.7525C291.219 14.6699 286.676 14.7319 282.135 14.9385C282.086 14.94 282.038 14.9516 281.993 14.9725C281.949 14.9934 281.909 15.0232 281.877 15.06C281.845 15.0967 281.82 15.1398 281.805 15.1864C281.79 15.233 281.785 15.2822 281.79 15.331L281.945 16.9147C281.957 17.0309 282.012 17.1387 282.099 17.2174C282.186 17.2962 282.299 17.3404 282.416 17.3417C283.95 17.383 296.497 17.1971 296.694 17.6378C296.736 17.7344 296.747 17.8418 296.724 17.9454C296.702 18.049 296.647 18.1435 296.567 18.2162L296.068 18.6638L281.171 18.7602C281.063 18.7602 280.959 18.7181 280.882 18.6432C280.806 18.5683 280.763 18.4667 280.763 18.3608V13.5268C280.763 13.4798 280.772 13.4333 280.791 13.3901C280.81 13.3469 280.838 13.308 280.873 13.2758C280.908 13.2435 280.949 13.2186 280.995 13.2026C281.04 13.1865 281.088 13.1797 281.136 13.1825L281.818 13.2101Z" fill="#9CA3AF"/>
<path d="M281.818 13.2101L305.919 13.3271L303.477 14.1052C302.844 14.3072 302.858 14.4358 303.519 14.4909L304.533 14.5804C304.626 14.5901 304.713 14.6299 304.781 14.6935C304.848 14.7571 304.892 14.8408 304.906 14.9316C305.124 16.3845 305.096 17.5895 304.061 18.8359C298.54 25.4832 293.942 30.8864 290.269 35.0455C289.706 35.6836 289.636 36.2574 290.058 36.767L289.995 36.946C289.991 36.9602 289.99 36.9751 289.992 36.9897C289.995 37.0043 290.001 37.0181 290.009 37.03C290.018 37.042 290.03 37.0519 290.043 37.0588C290.056 37.0657 290.071 37.0695 290.086 37.07L304.863 37.1388C305.525 38.4977 305.666 39.8634 305.286 41.236C305.257 41.3355 305.196 41.4234 305.113 41.4867C305.029 41.5499 304.927 41.5851 304.821 41.5872L282.543 41.7869C282.438 41.789 282.335 41.7664 282.24 41.7208C282.146 41.6753 282.064 41.6082 282.001 41.5252C281.03 40.226 281.039 38.9912 282.029 37.8205C287.054 31.8756 292.075 25.9285 297.095 19.979C297.238 19.8122 297.33 19.6096 297.362 19.3937L297.412 19.0287C297.418 18.9841 297.414 18.9386 297.4 18.8956C297.386 18.8526 297.362 18.8134 297.33 18.7808C297.299 18.7483 297.26 18.7233 297.216 18.7078C297.173 18.6923 297.127 18.6866 297.081 18.6913L296.771 18.7188L296.068 18.6638L296.567 18.2162C296.647 18.1435 296.702 18.049 296.724 17.9454C296.747 17.8418 296.736 17.7344 296.694 17.6378C296.497 17.1971 283.95 17.383 282.416 17.3417C282.299 17.3404 282.186 17.2962 282.099 17.2174C282.012 17.1387 281.957 17.0309 281.945 16.9147L281.79 15.331C281.785 15.2822 281.79 15.233 281.805 15.1864C281.82 15.1398 281.845 15.0967 281.877 15.06C281.909 15.0232 281.949 14.9934 281.993 14.9725C282.038 14.9516 282.086 14.94 282.135 14.9385C286.676 14.7319 291.219 14.6699 295.765 14.7525C296.131 14.7594 296.405 14.663 296.44 14.2912C296.451 14.1913 296.425 14.0908 296.369 14.0058C296.313 13.9209 296.229 13.8565 296.131 13.8229C295.343 13.5429 294.674 13.4235 294.125 13.4649C290.021 13.7632 285.918 13.6783 281.818 13.2101Z" fill="#9CA3AF"/>
<path d="M328.105 13.94C327.829 13.9492 327.606 14.0088 327.437 14.119C327.352 14.1728 327.29 14.2545 327.262 14.3492C327.233 14.4439 327.241 14.5455 327.282 14.6355L339.033 40.2926C339.095 40.429 339.121 40.5782 339.11 40.7269C339.098 40.8756 339.049 41.0191 338.966 41.1446C338.884 41.2701 338.771 41.3738 338.638 41.4462C338.505 41.5186 338.355 41.5576 338.203 41.5596L335.22 41.6078C334.309 41.6216 333.761 41.1924 333.573 40.3202C333.212 38.617 332.475 37.086 331.363 35.7272C331.273 35.6156 331.159 35.5254 331.028 35.4634C330.898 35.4014 330.755 35.3691 330.611 35.3691L318.74 35.4242C318.652 35.4242 318.568 35.4583 318.506 35.519C318.444 35.5797 318.409 35.662 318.409 35.7479V35.9407C318.407 36.006 318.431 36.0696 318.475 36.1183C318.52 36.167 318.582 36.1971 318.648 36.2023L320.52 36.3951L317.593 36.4227C317.478 36.4249 317.366 36.46 317.271 36.5236C317.176 36.5872 317.102 36.6766 317.058 36.7808L314.813 42.1518C314.751 42.304 314.644 42.4345 314.505 42.5266C314.365 42.6186 314.201 42.668 314.032 42.6683L307.664 42.682C307.629 42.6826 307.594 42.6745 307.562 42.6584C307.531 42.6424 307.504 42.6189 307.485 42.5901C307.465 42.5613 307.453 42.5281 307.45 42.4937C307.447 42.4592 307.453 42.4245 307.467 42.3928L320.562 13.5819C320.608 13.4825 320.678 13.3958 320.766 13.3296C320.855 13.2635 320.959 13.22 321.069 13.2032C323.499 12.8084 325.844 13.054 328.105 13.94ZM328.816 30.7418C328.976 30.7785 329.112 30.7693 329.224 30.7142C329.32 30.6689 329.394 30.59 329.432 30.494C329.47 30.3979 329.469 30.2919 329.428 30.1978C328.143 27.0853 326.832 23.982 325.495 20.8879C325.387 20.6309 324.998 20.5 324.327 20.4954C322.516 23.8558 320.94 27.3309 319.598 30.9208C319.583 30.9584 319.578 30.999 319.584 31.039C319.589 31.0791 319.604 31.1173 319.629 31.1506C319.653 31.1838 319.685 31.211 319.723 31.2297C319.76 31.2485 319.802 31.2583 319.844 31.2582H328.661C328.7 31.2579 328.739 31.2492 328.774 31.2329C328.809 31.2167 328.839 31.1931 328.864 31.164C328.888 31.135 328.905 31.1011 328.914 31.065C328.923 31.0289 328.923 30.9914 328.915 30.9552C328.896 30.8772 328.863 30.806 328.816 30.7418Z" fill="#9CA3AF"/>
<path d="M236.755 13.3547L250.146 42.4617C250.159 42.4921 250.164 42.5251 250.16 42.5579C250.157 42.5906 250.145 42.6219 250.126 42.6492C250.108 42.6764 250.082 42.6987 250.053 42.7141C250.023 42.7294 249.99 42.7373 249.956 42.7371L243.215 42.6545C243.107 42.6541 243.001 42.6224 242.912 42.5635C242.823 42.5046 242.755 42.4212 242.715 42.324L240.302 36.6224L240.562 36.3332C240.6 36.2915 240.648 36.2597 240.702 36.2406C240.756 36.2216 240.813 36.2159 240.87 36.2241C240.926 36.2323 240.98 36.2541 241.026 36.2876C241.071 36.321 241.108 36.3651 241.132 36.4158L243.335 41.2567C243.381 41.3575 243.456 41.443 243.551 41.5029C243.646 41.5628 243.756 41.5945 243.869 41.5941L247.81 41.5734C247.887 41.5732 247.963 41.554 248.031 41.5176C248.099 41.4813 248.157 41.4289 248.199 41.3653C248.24 41.3017 248.266 41.2288 248.271 41.1533C248.277 41.0778 248.264 41.0021 248.232 40.933L236.453 14.9936C236.366 14.802 236.217 14.6464 236.03 14.5529L235.65 14.36C235.604 14.3361 235.564 14.3018 235.533 14.26C235.503 14.2182 235.482 14.1699 235.474 14.1191C235.466 14.0683 235.47 14.0163 235.486 13.9673C235.502 13.9182 235.529 13.8735 235.566 13.8367C235.894 13.5154 236.291 13.3547 236.755 13.3547Z" fill="#9CA3AF"/>
<path d="M305.919 13.3271L306.01 17.4587C306.015 17.6853 305.935 17.9057 305.785 18.0785L290.058 36.767C289.636 36.2574 289.706 35.6836 290.269 35.0455C293.942 30.8864 298.54 25.4832 304.061 18.8359C305.096 17.5895 305.124 16.3845 304.906 14.9316C304.892 14.8408 304.848 14.7571 304.781 14.6935C304.713 14.6299 304.626 14.5901 304.533 14.5804L303.519 14.4909C302.858 14.4358 302.844 14.3072 303.477 14.1052L305.919 13.3271Z" fill="#9CA3AF"/>
<path d="M277.223 13.2927L277.216 17.259C277.216 17.4812 277.137 17.6958 276.991 17.865L262.13 35.4449C262.284 34.4441 262.688 33.5604 263.34 32.7938C266.783 28.7219 270.219 24.6454 273.649 20.5643C275.19 18.7189 276.534 17.8857 275.865 15.1588C275.556 13.8987 275.879 13.4029 277.223 13.2927Z" fill="#9CA3AF"/>
<path d="M127.342 34.1779C131.346 39.3217 138.136 39.7899 143.28 35.6377C143.369 35.5677 143.475 35.5234 143.587 35.51C143.7 35.4966 143.812 35.5146 143.913 35.562C145.119 36.122 145.996 36.9851 146.545 38.1511C146.596 38.2592 146.607 38.3817 146.574 38.4974C146.542 38.6132 146.47 38.7148 146.369 38.7846C135.73 46.1526 119.489 41.4839 120.446 26.7479C120.826 20.8719 124.023 16.8206 130.037 14.5942C134.561 12.9209 143.273 13.4924 146.489 17.6584C146.561 17.753 146.596 17.8699 146.587 17.9876C146.577 18.1053 146.525 18.2159 146.439 18.2988L143.962 20.6538C143.865 20.7459 143.735 20.7975 143.6 20.7975C143.465 20.7975 143.335 20.7459 143.238 20.6538C141.277 18.8084 139.06 17.7847 136.588 17.5827C127.827 16.8596 122.184 27.5536 127.342 34.1779Z" fill="#9CA3AF"/>
<path d="M328.105 13.94L341.137 42.4892C341.155 42.5275 341.163 42.5695 341.159 42.6114C341.155 42.6534 341.14 42.6938 341.116 42.7289C341.091 42.764 341.057 42.7926 341.018 42.8122C340.979 42.8317 340.935 42.8414 340.891 42.8404L334.122 42.627C334.013 42.6232 333.907 42.5887 333.817 42.5277C333.727 42.4666 333.657 42.3816 333.615 42.2827L331.293 36.7808C331.25 36.6753 331.174 36.5849 331.077 36.5211C330.979 36.4574 330.863 36.4231 330.744 36.4227L320.52 36.3951L318.648 36.2023C318.582 36.1971 318.52 36.167 318.475 36.1183C318.431 36.0696 318.407 36.006 318.409 35.9407V35.7479C318.409 35.662 318.444 35.5797 318.506 35.519C318.568 35.4583 318.652 35.4242 318.74 35.4242L330.611 35.3691C330.755 35.3691 330.898 35.4014 331.028 35.4634C331.159 35.5254 331.273 35.6156 331.363 35.7272C332.475 37.086 333.212 38.617 333.573 40.3202C333.761 41.1924 334.309 41.6216 335.22 41.6078L338.203 41.5596C338.355 41.5576 338.505 41.5186 338.638 41.4462C338.771 41.3738 338.884 41.2701 338.966 41.1446C339.049 41.0191 339.098 40.8756 339.11 40.7269C339.121 40.5782 339.095 40.429 339.033 40.2926L327.282 14.6355C327.241 14.5455 327.233 14.4439 327.262 14.3492C327.29 14.2545 327.352 14.1728 327.437 14.119C327.606 14.0088 327.829 13.9492 328.105 13.94Z" fill="#9CA3AF"/>
<path d="M276.752 37.1113C277.094 37.0562 277.38 37.0654 277.61 37.1388C277.708 37.1707 277.794 37.2323 277.854 37.3151C277.915 37.3979 277.948 37.4977 277.948 37.6002V42.1105C277.948 42.2511 277.891 42.386 277.789 42.4854C277.688 42.5849 277.55 42.6407 277.406 42.6407L252.004 42.627C251.84 42.627 251.682 42.5624 251.566 42.4475C251.45 42.3325 251.385 42.1766 251.385 42.0141V38.7157C251.385 38.4622 251.477 38.2159 251.645 38.0202L267.611 19.2146C267.907 18.8658 267.825 18.6913 267.365 18.6913L254.727 18.6638L254.143 18.471C254.047 18.4393 253.966 18.3739 253.917 18.2873C253.868 18.2008 253.853 18.0993 253.876 18.0027C254.002 17.4427 254.361 17.1695 254.952 17.1833C259.09 17.3118 263.232 17.3577 267.379 17.321C267.606 17.3212 267.826 17.4019 267.998 17.5483C268.751 18.1955 268.843 18.7602 268.23 19.6003C263.558 26.0111 257.922 32.057 252.834 38.1786C252.693 38.3529 252.616 38.569 252.616 38.7915L252.609 40.5543C252.609 40.7122 252.641 40.8686 252.703 41.0144C252.765 41.1602 252.856 41.2926 252.97 41.404C253.085 41.5153 253.22 41.6034 253.37 41.6632C253.519 41.723 253.679 41.7534 253.84 41.7525L275.802 41.6285C275.916 41.6285 276.027 41.5923 276.119 41.5252C276.21 41.4582 276.277 41.3639 276.309 41.2567C276.707 39.9346 276.855 38.5528 276.752 37.1113Z" fill="#9CA3AF"/>
<path d="M172.968 19.6829C181.728 25.6392 176.219 39.8588 165.875 38.4403C155.313 36.9873 152.822 23.663 162.117 18.6293C165.575 16.7563 169.191 17.1075 172.968 19.6829ZM166.524 37.4308C167.762 37.4667 168.995 37.2579 170.153 36.8162C171.311 36.3745 172.371 35.7085 173.272 34.8564C174.174 34.0043 174.9 32.9826 175.409 31.8498C175.917 30.717 176.198 29.4952 176.236 28.2542C176.273 27.0132 176.067 25.7772 175.628 24.6169C175.189 23.4566 174.526 22.3946 173.678 21.4917C172.829 20.5887 171.811 19.8624 170.682 19.3543C169.553 18.8461 168.335 18.5661 167.097 18.5302C165.859 18.4942 164.626 18.7031 163.469 19.1448C162.311 19.5865 161.251 20.2524 160.349 21.1046C159.447 21.9567 158.721 22.9783 158.213 24.1111C157.704 25.2439 157.423 26.4657 157.386 27.7068C157.348 28.9478 157.554 30.1838 157.993 31.3441C158.432 32.5044 159.095 33.5663 159.943 34.4693C160.792 35.3723 161.81 36.0985 162.939 36.6067C164.068 37.1148 165.286 37.3948 166.524 37.4308Z" fill="#9CA3AF"/>
<path d="M296.771 18.7188L297.081 18.6913C297.127 18.6866 297.173 18.6923 297.216 18.7078C297.26 18.7233 297.299 18.7483 297.33 18.7808C297.362 18.8134 297.386 18.8526 297.4 18.8956C297.414 18.9386 297.418 18.9841 297.412 19.0287L297.362 19.3937C297.33 19.6096 297.238 19.8122 297.095 19.979C292.075 25.9285 287.054 31.8756 282.029 37.8205C281.039 38.9912 281.03 40.226 282.001 41.5252C282.064 41.6082 282.146 41.6753 282.24 41.7208C282.335 41.7664 282.438 41.789 282.543 41.7869L304.821 41.5872C304.927 41.5851 305.029 41.5499 305.113 41.4867C305.196 41.4234 305.257 41.3355 305.286 41.236C305.666 39.8634 305.525 38.4977 304.863 37.1388L306.44 37.1251C306.486 37.1241 306.533 37.1324 306.576 37.1493C306.62 37.1662 306.66 37.1914 306.693 37.2234C306.726 37.2555 306.753 37.2938 306.771 37.336C306.789 37.3782 306.799 37.4236 306.799 37.4694V41.7662C306.797 41.9988 306.702 42.2212 306.534 42.385C306.367 42.5488 306.141 42.6407 305.905 42.6407L280.847 42.627C280.787 42.627 280.728 42.6153 280.673 42.5928C280.618 42.5702 280.568 42.5371 280.526 42.4955C280.484 42.4538 280.451 42.4044 280.429 42.3501C280.407 42.2959 280.396 42.2378 280.397 42.1794L280.446 38.4816C280.451 38.2629 280.53 38.0539 280.671 37.8894L296.771 18.7188Z" fill="#9CA3AF"/>
<path d="M324.327 20.4954C324.998 20.5 325.387 20.6309 325.495 20.8879C326.832 23.982 328.143 27.0853 329.428 30.1978C329.469 30.2919 329.47 30.3979 329.432 30.494C329.394 30.59 329.32 30.6689 329.224 30.7142C329.112 30.7693 328.976 30.7785 328.816 30.7418L324.327 20.4954Z" fill="#9CA3AF"/>
<path d="M37.4694 46.607C37.2583 46.6438 37.1035 46.6116 37.0049 46.5106C36.9293 46.434 36.887 46.3319 36.887 46.2263C36.887 46.1207 36.9293 46.0201 37.0049 45.946L54.1956 29.0271C54.2317 28.992 54.2604 28.9501 54.28 28.904C54.2996 28.8579 54.3097 28.8085 54.3097 28.7586C54.3097 28.7087 54.2996 28.6593 54.28 28.6132C54.2604 28.5671 54.2317 28.5252 54.1956 28.49L48.5592 22.995C48.4423 22.8832 48.2849 22.8212 48.1215 22.8225C47.958 22.8238 47.8017 22.8883 47.6866 23.0019L22.8612 47.3163C22.8358 47.3396 22.8155 47.3676 22.8014 47.3987C22.7873 47.4298 22.7797 47.4633 22.779 47.4973C22.7783 47.5313 22.7847 47.5651 22.7976 47.5967C22.8105 47.6283 22.8297 47.6571 22.8542 47.6812L47.0815 71.4241C47.7054 72.0301 48.327 72.0278 48.9462 71.4172L53.8297 66.6177C53.968 66.4799 54.0456 66.2944 54.0456 66.1012C54.0456 65.908 53.968 65.7226 53.8297 65.5848L36.632 48.7486C36.552 48.6705 36.4963 48.5715 36.4714 48.4631C36.4465 48.3546 36.4534 48.2411 36.4913 48.1357L36.7376 47.4402L55.42 65.8465C55.502 65.9295 55.548 66.0402 55.548 66.1548C55.548 66.2695 55.502 66.3788 55.42 66.4593L48.4607 73.2626C48.4269 73.297 48.3864 73.3243 48.3415 73.3429C48.2965 73.3615 48.2481 73.3711 48.1989 73.3711C48.1498 73.3711 48.1009 73.3615 48.0552 73.3429C48.0096 73.3243 47.968 73.297 47.9329 73.2626L21.679 47.5711C21.6438 47.5363 21.624 47.4892 21.624 47.4402C21.624 47.3912 21.6438 47.3442 21.679 47.3094L47.9329 21.6178C47.968 21.5835 48.0096 21.5562 48.0552 21.5376C48.1009 21.5189 48.1498 21.5093 48.1989 21.5093C48.2481 21.5093 48.2965 21.5189 48.3415 21.5376C48.3864 21.5562 48.4269 21.5835 48.4607 21.6178L55.5959 28.6278C55.6169 28.6473 55.6337 28.6709 55.6451 28.6971C55.6565 28.7234 55.6624 28.7518 55.6624 28.7806C55.6624 28.8095 55.6565 28.8382 55.6451 28.8652C55.6337 28.8922 55.6169 28.9168 55.5959 28.9376L37.4694 46.607Z" fill="#9CA3AF"/>
<path d="M37.4694 46.607L36.7376 47.4402L36.4913 48.1357C36.4534 48.2411 36.4465 48.3546 36.4714 48.4631C36.4963 48.5715 36.552 48.6705 36.632 48.7486L53.8297 65.5848C53.968 65.7226 54.0456 65.908 54.0456 66.1012C54.0456 66.2944 53.968 66.4799 53.8297 66.6177L48.9462 71.4172C48.327 72.0278 47.7054 72.0301 47.0815 71.4241L22.8542 47.6812C22.8297 47.6571 22.8105 47.6283 22.7976 47.5967C22.7847 47.5651 22.7783 47.5313 22.779 47.4973C22.7797 47.4633 22.7873 47.4298 22.8014 47.3987C22.8155 47.3676 22.8358 47.3396 22.8612 47.3163L47.6866 23.0019C47.8017 22.8883 47.958 22.8238 48.1215 22.8225C48.2849 22.8212 48.4423 22.8832 48.5592 22.995L54.1956 28.49C54.2317 28.5252 54.2604 28.5671 54.28 28.6132C54.2996 28.6593 54.3097 28.7087 54.3097 28.7586C54.3097 28.8085 54.2996 28.8579 54.28 28.904C54.2604 28.9501 54.2317 28.992 54.1956 29.0271L37.0049 45.946C36.9293 46.0201 36.887 46.1207 36.887 46.2263C36.887 46.3319 36.9293 46.434 37.0049 46.5106C37.1035 46.6116 37.2583 46.6438 37.4694 46.607Z" fill="#9CA3AF"/>
<path d="M208.784 33.324L215.096 42.1794C215.34 42.5237 215.249 42.6935 214.822 42.6889L208.067 42.627C207.966 42.6271 207.867 42.6048 207.776 42.5618C207.686 42.5188 207.607 42.4563 207.546 42.3791C205.637 39.946 203.931 37.3408 202.43 34.5635C204.546 36.5696 206.315 38.8236 207.736 41.3255C207.802 41.4414 207.898 41.5371 208.015 41.6016C208.132 41.6661 208.265 41.6969 208.397 41.6905L212.634 41.5045C213.103 41.4816 213.206 41.2819 212.943 40.9055L208.13 33.9713C208.075 33.8954 208.052 33.8019 208.065 33.7097C208.078 33.6176 208.126 33.5338 208.2 33.4755C208.388 33.3286 208.583 33.2781 208.784 33.324Z" fill="#9CA3AF"/>
<path d="M74.8568 47.3384L64.0706 36.82C63.9991 36.7502 63.8832 36.7504 63.8119 36.8204L53.0534 47.3853C52.9821 47.4554 52.9823 47.5687 53.0538 47.6385L63.84 58.1569C63.9116 58.2267 64.0274 58.2265 64.0987 58.1565L74.8573 47.5916C74.9286 47.5215 74.9284 47.4082 74.8568 47.3384Z" fill="#9CA3AF"/>
<path d="M149.528 66.6521C149.711 66.5351 149.521 60.3515 149.55 59.5734C149.553 59.4589 149.602 59.3503 149.686 59.2706C149.77 59.1909 149.883 59.1464 150 59.1464H151.02C151.138 59.1464 151.251 59.1921 151.334 59.2735C151.417 59.3548 151.464 59.4652 151.464 59.5802V76.9191C151.464 77.0234 151.424 77.1237 151.352 77.1993C151.28 77.275 151.181 77.3201 151.077 77.3254L150.169 77.3805C150.109 77.3843 150.048 77.3759 149.992 77.3557C149.935 77.3355 149.883 77.304 149.839 77.2633C149.796 77.2225 149.761 77.1733 149.738 77.1188C149.715 77.0643 149.703 77.0057 149.704 76.9467L149.711 75.5901C149.716 75.0943 149.559 75.0415 149.24 75.4317C145.905 79.5358 139.677 77.2428 138.319 72.8977C136.285 66.3905 145.511 60.9574 149.156 66.5695C149.174 66.5992 149.199 66.6249 149.228 66.6452C149.257 66.6655 149.289 66.6799 149.324 66.6876C149.359 66.6953 149.395 66.6961 149.43 66.69C149.465 66.6839 149.499 66.6711 149.528 66.6521ZM144.589 75.8612C145.861 75.9134 147.103 75.4459 148.041 74.5615C148.98 73.6772 149.539 72.4484 149.595 71.1456C149.65 69.8428 149.199 68.5727 148.339 67.6146C147.479 66.6565 146.282 66.0889 145.01 66.0367C143.739 65.9846 142.497 66.4521 141.558 67.3364C140.619 68.2208 140.061 69.4495 140.005 70.7523C139.949 72.0551 140.401 73.3253 141.261 74.2834C142.12 75.2415 143.318 75.8091 144.589 75.8612Z" fill="#9CA3AF"/>
<path d="M227.002 66.5557C227.087 66.4731 227.124 66.3537 227.115 66.1977C226.951 63.379 226.897 61.1686 226.953 59.5665C226.959 59.4532 227.008 59.3463 227.092 59.2681C227.176 59.1899 227.288 59.1463 227.403 59.1464H228.339C228.433 59.1464 228.522 59.1827 228.588 59.2473C228.654 59.3118 228.691 59.3994 228.691 59.4907V76.9673C228.691 77.0824 228.644 77.1927 228.561 77.2741C228.478 77.3554 228.365 77.4011 228.248 77.4011L227.544 77.3943C227.428 77.3924 227.317 77.3459 227.235 77.2648C227.154 77.1836 227.108 77.0743 227.108 76.9604L227.115 75.5213C227.12 75.1035 226.979 75.0484 226.693 75.356C220.402 82.1043 211.05 72.037 217.622 66.0186C219.846 63.9873 224.504 63.7187 226.51 66.5075C226.536 66.5456 226.571 66.5775 226.612 66.601C226.652 66.6245 226.698 66.6391 226.745 66.6437C226.792 66.6483 226.839 66.6428 226.883 66.6276C226.928 66.6124 226.969 66.5879 227.002 66.5557ZM222.225 75.8995C222.859 75.8909 223.484 75.754 224.067 75.4969C224.649 75.2398 225.175 74.8673 225.617 74.4009C226.059 73.9344 226.406 73.3831 226.64 72.7783C226.874 72.1735 226.99 71.5271 226.981 70.8761C226.962 69.5613 226.435 68.3074 225.517 67.39C224.599 66.4727 223.363 65.9672 222.083 65.9847C221.45 65.9933 220.824 66.1301 220.242 66.3873C219.66 66.6444 219.133 67.0168 218.691 67.4833C218.249 67.9498 217.902 68.5011 217.668 69.1059C217.434 69.7107 217.318 70.357 217.327 71.0081C217.346 72.3228 217.873 73.5768 218.791 74.4941C219.71 75.4115 220.945 75.917 222.225 75.8995Z" fill="#9CA3AF"/>
<path d="M132.887 72.8977L123.5 72.9253C123.455 72.9251 123.412 72.9374 123.375 72.9605C123.337 72.9837 123.307 73.0169 123.289 73.0561L121.34 77.2566C121.321 77.2958 121.291 77.329 121.253 77.3521C121.216 77.3753 121.173 77.3876 121.128 77.3874L119.594 77.3943C119.555 77.3956 119.515 77.3869 119.48 77.3691C119.445 77.3512 119.415 77.3248 119.393 77.2923C119.371 77.2598 119.358 77.2224 119.355 77.1836C119.352 77.1447 119.359 77.1059 119.376 77.0706L127.159 60.3928C127.179 60.3514 127.211 60.3167 127.251 60.2934C127.291 60.27 127.337 60.2591 127.384 60.262L129.087 60.3722C129.129 60.3745 129.169 60.3879 129.204 60.411C129.239 60.434 129.266 60.4658 129.284 60.503L137.003 77.0775C137.02 77.1122 137.027 77.1505 137.025 77.1887C137.022 77.2269 137.01 77.2639 136.989 77.2962C136.968 77.3285 136.938 77.355 136.904 77.3734C136.87 77.3917 136.831 77.4013 136.792 77.4012L135.202 77.3943C135.156 77.3952 135.11 77.3826 135.071 77.358C135.032 77.3335 135.002 77.2982 134.984 77.2566L133.105 73.0355C133.087 72.9939 133.056 72.9585 133.017 72.934C132.978 72.9094 132.933 72.8968 132.887 72.8977ZM124.309 70.8801C124.294 70.9136 124.287 70.9502 124.29 70.9866C124.293 71.0231 124.305 71.0583 124.325 71.089C124.346 71.1198 124.373 71.1451 124.406 71.1627C124.439 71.1804 124.476 71.1897 124.513 71.19L131.845 71.2038C131.883 71.2035 131.919 71.1941 131.952 71.1765C131.985 71.1589 132.013 71.1336 132.033 71.1028C132.053 71.0721 132.065 71.0369 132.068 71.0004C132.071 70.9639 132.065 70.9273 132.049 70.8939L128.404 62.7891C128.387 62.7491 128.358 62.715 128.321 62.691C128.284 62.667 128.241 62.6542 128.197 62.6542C128.152 62.6542 128.109 62.667 128.072 62.691C128.035 62.715 128.006 62.7491 127.989 62.7891L124.309 70.8801Z" fill="#9CA3AF"/>
<path d="M160.808 74.9979L165.34 64.8549C165.39 64.7439 165.473 64.6497 165.578 64.5837C165.683 64.5177 165.806 64.4827 165.931 64.4831H166.93C166.984 64.4828 167.036 64.4958 167.083 64.5207C167.13 64.5457 167.17 64.5818 167.198 64.6258C167.227 64.6697 167.244 64.7201 167.248 64.7722C167.251 64.8243 167.241 64.8764 167.219 64.9238L161.688 77.0775C161.641 77.1757 161.567 77.2586 161.473 77.3161C161.379 77.3736 161.271 77.4031 161.16 77.4011L160.034 77.3667C159.918 77.3647 159.806 77.3305 159.71 77.2683C159.614 77.206 159.538 77.1183 159.492 77.0155L153.983 65.0064C153.963 64.9621 153.953 64.9144 153.953 64.8663C153.953 64.8182 153.962 64.7707 153.981 64.7268C154.001 64.6828 154.029 64.6434 154.064 64.611C154.099 64.5785 154.141 64.5537 154.187 64.5381C155.116 64.2214 155.693 64.3867 156.129 65.2956C157.653 68.4861 159.066 71.7179 160.365 74.991C160.506 75.3445 160.653 75.3468 160.808 74.9979Z" fill="#9CA3AF"/>
<path d="M181.489 70.949C181.489 71.8125 181.315 72.6677 180.978 73.4655C180.64 74.2634 180.145 74.9883 179.521 75.599C178.897 76.2096 178.156 76.694 177.341 77.0245C176.526 77.355 175.652 77.5251 174.769 77.5251C172.987 77.5251 171.278 76.8322 170.017 75.599C168.757 74.3657 168.049 72.693 168.049 70.949C168.049 69.2049 168.757 67.5322 170.017 66.2989C171.278 65.0657 172.987 64.3728 174.769 64.3728C175.652 64.3728 176.526 64.5429 177.341 64.8734C178.156 65.2039 178.897 65.6883 179.521 66.2989C180.145 66.9096 180.64 67.6345 180.978 68.4324C181.315 69.2302 181.489 70.0854 181.489 70.949ZM174.537 75.8819C175.808 75.934 177.05 75.4643 177.989 74.5761C178.928 73.6879 179.487 72.4539 179.543 71.1456C179.571 70.4978 179.474 69.8513 179.259 69.2429C179.043 68.6345 178.713 68.0762 178.288 67.5999C177.862 67.1236 177.349 66.7386 176.778 66.4668C176.207 66.195 175.589 66.0419 174.959 66.0161C173.688 65.9639 172.446 66.4336 171.507 67.3218C170.568 68.21 170.009 69.444 169.953 70.7523C169.926 71.4001 170.022 72.0466 170.237 72.655C170.453 73.2634 170.783 73.8217 171.208 74.298C171.634 74.7743 172.147 75.1594 172.718 75.4311C173.289 75.7029 173.907 75.856 174.537 75.8819Z" fill="#9CA3AF"/>
<path d="M194.971 75.0874C191.383 78.2343 185.113 77.1325 183.931 72.4432C182.221 65.6399 190.313 61.8113 195.049 66.3422C195.316 66.5993 195.45 66.5442 195.45 66.177V64.9099C195.449 64.8533 195.46 64.797 195.481 64.7444C195.503 64.6919 195.535 64.644 195.575 64.6036C195.616 64.5632 195.664 64.5312 195.718 64.5093C195.771 64.4874 195.828 64.4761 195.886 64.4761L196.752 64.483C196.854 64.483 196.953 64.5229 197.025 64.5939C197.098 64.665 197.139 64.7613 197.139 64.8617C197.143 68.6169 197.118 72.3675 197.061 76.1134C196.956 83.1715 189.652 83.4814 184.93 80.6444C184.836 80.5886 184.764 80.5023 184.728 80.4004C184.692 80.2985 184.694 80.1875 184.733 80.0866L185.064 79.219C185.086 79.161 185.122 79.109 185.168 79.0669C185.215 79.0248 185.27 78.9939 185.331 78.9765C185.392 78.9591 185.456 78.9558 185.518 78.9668C185.581 78.9778 185.639 79.0029 185.69 79.04C189.307 81.6773 196.076 81.3674 195.274 75.1976C195.246 74.9726 195.145 74.9359 194.971 75.0874ZM195.281 70.646C195.281 69.3968 194.774 68.1988 193.871 67.3155C192.969 66.4322 191.744 65.936 190.468 65.936C189.836 65.936 189.21 66.0578 188.626 66.2945C188.042 66.5312 187.511 66.8781 187.065 67.3155C186.618 67.7528 186.263 68.2721 186.021 68.8435C185.779 69.415 185.655 70.0274 185.655 70.646C185.655 71.2645 185.779 71.877 186.021 72.4484C186.263 73.0198 186.618 73.5391 187.065 73.9764C187.511 74.4138 188.042 74.7607 188.626 74.9974C189.21 75.2341 189.836 75.356 190.468 75.356C191.744 75.356 192.969 74.8597 193.871 73.9764C194.774 73.0931 195.281 71.8951 195.281 70.646Z" fill="#9CA3AF"/>
<path d="M210.065 75.9482C206.997 78.3858 199.799 77.8556 201.065 72.9046C201.412 71.5228 202.294 70.6758 203.711 70.3637C205.681 69.9229 207.677 69.8403 209.699 70.1158C209.796 70.1294 209.895 70.1045 209.974 70.0466C210.052 69.9886 210.106 69.9022 210.121 69.8059C210.79 65.4677 205.238 65.3162 202.789 67.1272C202.703 67.1921 202.604 67.2388 202.498 67.2647C202.392 67.2905 202.282 67.2948 202.174 67.2774C202.066 67.2601 201.962 67.2213 201.87 67.1635C201.777 67.1057 201.697 67.0301 201.635 66.9413C200.256 64.9237 209.087 62.796 211.304 66.5695C212.549 68.6835 212 74.2542 211.958 76.8365C211.956 76.9573 211.909 77.0733 211.826 77.1631C211.743 77.2529 211.63 77.3105 211.508 77.3254L210.684 77.4218C210.622 77.4291 210.56 77.4228 210.501 77.4036C210.441 77.3843 210.387 77.3525 210.342 77.3103C210.297 77.2682 210.262 77.2168 210.24 77.1599C210.218 77.103 210.208 77.0419 210.213 76.9811L210.269 76.0583C210.283 75.8701 210.215 75.8334 210.065 75.9482ZM203.31 72.4708C200.298 76.4853 210.917 78.1655 210.22 71.672C210.209 71.5772 210.162 71.49 210.089 71.4285C210.016 71.3669 209.921 71.3358 209.826 71.3415L205.02 71.5687C204.684 71.586 204.356 71.6759 204.06 71.832C203.764 71.988 203.508 72.2062 203.31 72.4708Z" fill="#9CA3AF"/>
<path d="M245.727 70.9627C245.727 72.705 245.02 74.3759 243.761 75.6079C242.502 76.8398 240.794 77.532 239.014 77.532C237.234 77.532 235.526 76.8398 234.267 75.6079C233.008 74.3759 232.301 72.705 232.301 70.9627C232.301 69.2205 233.008 67.5496 234.267 66.3176C235.526 65.0856 237.234 64.3935 239.014 64.3935C240.794 64.3935 242.502 65.0856 243.761 66.3176C245.02 67.5496 245.727 69.2205 245.727 70.9627ZM239.283 75.873C240.564 75.8095 241.765 75.2291 242.622 74.2595C243.48 73.2899 243.924 72.0105 243.856 70.7027C243.823 70.0552 243.664 69.4202 243.391 68.834C243.117 68.2477 242.733 67.7218 242.261 67.2861C241.789 66.8505 241.238 66.5137 240.64 66.2949C240.041 66.0762 239.407 65.9797 238.773 66.0112C237.492 66.0747 236.291 66.6551 235.434 67.6247C234.576 68.5943 234.132 69.8737 234.2 71.1814C234.234 71.829 234.392 72.464 234.665 73.0502C234.939 73.6364 235.323 74.1624 235.795 74.598C236.267 75.0337 236.818 75.3705 237.416 75.5893C238.015 75.808 238.649 75.9044 239.283 75.873Z" fill="#9CA3AF"/>
<path d="M248.352 66.5695C250.413 63.7187 254.565 64.18 257.394 65.3438C257.447 65.3654 257.496 65.3975 257.536 65.4379C257.577 65.4783 257.608 65.5264 257.629 65.5791C257.65 65.6319 257.66 65.6882 257.659 65.7448C257.657 65.8014 257.643 65.857 257.619 65.9084L257.218 66.7623C257.196 66.8071 257.166 66.8471 257.128 66.8797C257.089 66.9124 257.045 66.9369 256.997 66.9518C256.948 66.9666 256.897 66.9716 256.847 66.9662C256.797 66.9609 256.748 66.9453 256.704 66.9207C254.896 65.9153 251.216 65.1441 249.893 67.382C249.231 68.5067 249.536 69.2527 250.808 69.62C252.22 70.0239 253.65 70.382 255.1 70.6942C258.154 71.3483 259.54 74.3851 256.936 76.3613C254.516 78.1999 250.252 77.4769 247.732 76.2787C247.627 76.2264 247.547 76.1365 247.509 76.0284C247.471 75.9202 247.478 75.8025 247.528 75.7003L247.951 74.8602C247.977 74.8066 248.015 74.7591 248.061 74.7206C248.107 74.6821 248.161 74.6535 248.22 74.6366C248.278 74.6198 248.339 74.615 248.4 74.6227C248.46 74.6304 248.518 74.6503 248.57 74.6811C250.596 75.8839 252.829 76.1961 255.269 75.6176C256.474 75.333 256.822 74.6375 256.31 73.5312C256.048 72.9711 255.56 72.5855 254.847 72.3744C251.919 71.5274 247.31 71.548 248.091 67.1961C248.134 66.9666 248.22 66.7577 248.352 66.5695Z" fill="#9CA3AF"/>
<path fill-rule="evenodd" clip-rule="evenodd" d="M181.862 31.5819C186.717 10.7587 153.659 7.07467 151.464 26.2383C149.282 45.3125 178.09 47.7708 181.862 31.5819ZM170.153 36.8162C168.995 37.2579 167.762 37.4667 166.524 37.4308C165.286 37.3948 164.068 37.1148 162.939 36.6067C161.81 36.0985 160.792 35.3723 159.943 34.4693C159.095 33.5663 158.432 32.5044 157.993 31.3441C157.554 30.1838 157.348 28.9478 157.386 27.7068C157.423 26.4657 157.704 25.2439 158.213 24.1111C158.721 22.9783 159.447 21.9567 160.349 21.1046C161.251 20.2524 162.311 19.5865 163.469 19.1448C164.626 18.7031 165.859 18.4942 167.097 18.5302C168.335 18.5661 169.553 18.8461 170.682 19.3543C171.811 19.8624 172.829 20.5887 173.678 21.4917C174.526 22.3946 175.189 23.4566 175.628 24.6169C176.067 25.7772 176.273 27.0132 176.236 28.2542C176.198 29.4952 175.917 30.717 175.409 31.8498C174.9 32.9826 174.174 34.0043 173.272 34.8564C172.371 35.7085 171.311 36.3745 170.153 36.8162Z" fill="#9CA3AF"/>
</svg>
