<svg width="374" height="81" viewBox="0 0 374 81" fill="none" xmlns="http://www.w3.org/2000/svg">
<path d="M44.3713 41.0021C60.7113 48.5121 76.7713 31.8221 67.9213 16.0621C64.708 10.3288 59.7446 7.4188 53.0313 7.33213C35.8513 7.1188 18.668 6.9688 1.48132 6.88213C1.39859 6.88213 1.31666 6.86609 1.24023 6.83493C1.16379 6.80378 1.09434 6.75811 1.03584 6.70053C0.977342 6.64296 0.930933 6.57462 0.899273 6.49939C0.867612 6.42417 0.851318 6.34355 0.851318 6.26213V0.97213C0.851318 0.762609 0.934549 0.561667 1.0827 0.413513C1.23086 0.265359 1.4318 0.182129 1.64132 0.182129C16.828 0.182129 31.848 0.182129 46.7013 0.182129C53.208 0.182129 57.9113 0.675462 60.8113 1.66213C73.0913 5.83213 80.2513 20.7221 75.8213 32.9121C66.6413 58.1621 31.2613 53.4421 27.6813 27.3321C27.6684 27.2511 27.6734 27.1681 27.696 27.0891C27.7186 27.01 27.7584 26.9366 27.8125 26.8739C27.8666 26.8112 27.9339 26.7608 28.0096 26.7259C28.0853 26.6911 28.1678 26.6728 28.2513 26.6721L33.6113 26.7021C33.7577 26.7014 33.9001 26.7516 34.0147 26.8444C34.1294 26.9372 34.2093 27.067 34.2413 27.2121C35.628 33.9388 39.0046 38.5355 44.3713 41.0021Z" fill="#E5E7EB"/>
<path d="M130.851 26.2421V44.8021C130.851 44.9692 130.786 45.1295 130.67 45.2476C130.553 45.3657 130.396 45.4321 130.231 45.4321H125.481C125.314 45.4321 125.154 45.3657 125.036 45.2476C124.918 45.1295 124.851 44.9692 124.851 44.8021V3.64212C124.851 3.52714 124.896 3.41671 124.977 3.33448C125.057 3.25225 125.166 3.20474 125.281 3.20213C132.531 3.12213 142.921 0.962124 145.311 10.4421C146.631 15.6221 145.781 22.5521 140.311 24.9021C137.781 26.0021 134.331 25.6921 131.351 25.7421C131.219 25.7421 131.092 25.7948 130.998 25.8886C130.904 25.9823 130.851 26.1095 130.851 26.2421ZM137.541 7.98212L131.601 7.27212C131.507 7.26076 131.411 7.26965 131.32 7.29819C131.23 7.32673 131.146 7.37428 131.075 7.43767C131.004 7.50105 130.947 7.57882 130.909 7.66581C130.87 7.75279 130.851 7.84698 130.851 7.94212V20.8721C130.851 20.9628 130.869 21.0525 130.905 21.1356C130.941 21.2186 130.994 21.2931 131.06 21.3544C131.126 21.4156 131.203 21.4621 131.288 21.491C131.373 21.5199 131.462 21.5305 131.551 21.5221L137.001 21.0421C138.988 20.8688 139.971 19.7855 139.951 17.7921L139.871 10.5821C139.851 9.03546 139.075 8.16879 137.541 7.98212Z" fill="#9CA3AF"/>
<path d="M155.851 26.0721V45.0421C155.851 45.1456 155.81 45.2448 155.737 45.3179C155.664 45.391 155.565 45.4321 155.461 45.4321H150.241C150.138 45.4321 150.039 45.391 149.966 45.3179C149.892 45.2448 149.851 45.1456 149.851 45.0421V3.57213C149.851 3.46869 149.892 3.3695 149.966 3.29636C150.039 3.22322 150.138 3.18213 150.241 3.18213H155.461C155.565 3.18213 155.664 3.22322 155.737 3.29636C155.81 3.3695 155.851 3.46869 155.851 3.57213V21.0421C155.851 21.1456 155.892 21.2448 155.966 21.3179C156.039 21.391 156.138 21.4321 156.241 21.4321H166.211C166.315 21.4321 166.414 21.391 166.487 21.3179C166.56 21.2448 166.601 21.1456 166.601 21.0421V3.57213C166.601 3.46869 166.642 3.3695 166.716 3.29636C166.789 3.22322 166.888 3.18213 166.991 3.18213H172.211C172.315 3.18213 172.414 3.22322 172.487 3.29636C172.56 3.3695 172.601 3.46869 172.601 3.57213V45.0421C172.601 45.1456 172.56 45.2448 172.487 45.3179C172.414 45.391 172.315 45.4321 172.211 45.4321H166.991C166.888 45.4321 166.789 45.391 166.716 45.3179C166.642 45.2448 166.601 45.1456 166.601 45.0421V26.0721C166.601 25.9687 166.56 25.8695 166.487 25.7964C166.414 25.7232 166.315 25.6821 166.211 25.6821H156.241C156.138 25.6821 156.039 25.7232 155.966 25.7964C155.892 25.8695 155.851 25.9687 155.851 26.0721Z" fill="#9CA3AF"/>
<path d="M185.041 3.19214H179.661C179.49 3.19214 179.351 3.33093 179.351 3.50214V45.1221C179.351 45.2934 179.49 45.4321 179.661 45.4321H185.041C185.213 45.4321 185.351 45.2934 185.351 45.1221V3.50214C185.351 3.33093 185.213 3.19214 185.041 3.19214Z" fill="#9CA3AF"/>
<path d="M198.161 41.1821H208.301C208.377 41.1842 208.449 41.2138 208.504 41.2654C208.559 41.3169 208.594 41.3869 208.601 41.4621L208.921 45.0921C208.925 45.1353 208.921 45.1788 208.907 45.22C208.893 45.2611 208.871 45.299 208.842 45.331C208.813 45.363 208.777 45.3886 208.737 45.406C208.698 45.4234 208.655 45.4323 208.611 45.4321H192.421C192.339 45.4321 192.26 45.3995 192.202 45.3413C192.144 45.2832 192.111 45.2043 192.111 45.1221L192.071 3.49213C192.071 3.45142 192.079 3.41111 192.095 3.3735C192.11 3.33589 192.133 3.30171 192.162 3.27293C192.191 3.24414 192.225 3.22131 192.263 3.20573C192.3 3.19015 192.341 3.18213 192.381 3.18213H197.541C197.582 3.18213 197.622 3.19015 197.66 3.20573C197.698 3.22131 197.732 3.24414 197.76 3.27293C197.789 3.30171 197.812 3.33589 197.828 3.3735C197.843 3.41111 197.851 3.45142 197.851 3.49213V40.8721C197.851 40.9543 197.884 41.0332 197.942 41.0913C198 41.1495 198.079 41.1821 198.161 41.1821Z" fill="#9CA3AF"/>
<path d="M218.571 3.18213H213.371C213.217 3.18213 213.091 3.30749 213.091 3.46213V45.1421C213.091 45.2968 213.217 45.4221 213.371 45.4221H218.571C218.726 45.4221 218.851 45.2968 218.851 45.1421V3.46213C218.851 3.30749 218.726 3.18213 218.571 3.18213Z" fill="#9CA3AF"/>
<path d="M231.591 26.5022L231.611 44.7721C231.611 44.9498 231.541 45.1203 231.415 45.2459C231.289 45.3716 231.119 45.4422 230.941 45.4422L225.951 45.4322C225.779 45.4322 225.614 45.3626 225.492 45.2388C225.37 45.1151 225.301 44.9472 225.301 44.7721L225.471 3.97215C225.471 3.81867 225.528 3.67064 225.632 3.55758C225.736 3.44451 225.878 3.37473 226.031 3.36215C234.041 2.72215 243.881 1.64215 245.971 10.0122C247.591 16.5322 246.441 24.4222 238.291 25.4322C236.238 25.6855 234.171 25.8655 232.091 25.9722C231.956 25.9798 231.829 26.039 231.736 26.1376C231.643 26.2362 231.591 26.3666 231.591 26.5022ZM232.451 7.55215L232.151 7.45215C232.089 7.42951 232.022 7.42232 231.956 7.43118C231.891 7.44005 231.828 7.46471 231.774 7.50305C231.72 7.54139 231.676 7.59227 231.646 7.65133C231.616 7.71039 231.6 7.77587 231.601 7.84215V20.6322C231.601 20.7702 231.647 20.9047 231.732 21.0149C231.817 21.1251 231.936 21.2049 232.071 21.2422C243.891 24.4222 244.321 5.32215 233.031 7.59215C232.834 7.62517 232.635 7.61145 232.451 7.55215Z" fill="#9CA3AF"/>
<path d="M256.601 26.1821V40.6821C256.601 40.8147 256.654 40.9419 256.748 41.0357C256.842 41.1295 256.969 41.1821 257.101 41.1821H266.601C266.734 41.1821 266.861 41.2348 266.955 41.3286C267.049 41.4223 267.101 41.5495 267.101 41.6821V44.9321C267.101 45.0647 267.049 45.1919 266.955 45.2857C266.861 45.3795 266.734 45.4321 266.601 45.4321H251.101C250.969 45.4321 250.842 45.3795 250.748 45.2857C250.654 45.1919 250.601 45.0647 250.601 44.9321V3.68213C250.601 3.54952 250.654 3.42234 250.748 3.32858C250.842 3.23481 250.969 3.18213 251.101 3.18213H266.601C266.734 3.18213 266.861 3.23481 266.955 3.32858C267.049 3.42234 267.101 3.54952 267.101 3.68213V7.18213C267.101 7.31474 267.049 7.44191 266.955 7.53568C266.861 7.62945 266.734 7.68213 266.601 7.68213H257.101C256.969 7.68213 256.842 7.73481 256.748 7.82858C256.654 7.92234 256.601 8.04952 256.601 8.18213V20.9321C256.601 21.0647 256.654 21.1919 256.748 21.2857C256.842 21.3795 256.969 21.4321 257.101 21.4321H264.571C264.64 21.4319 264.709 21.446 264.772 21.4736C264.836 21.5012 264.893 21.5417 264.94 21.5924C264.987 21.6432 265.023 21.7031 265.045 21.7685C265.068 21.8338 265.077 21.9032 265.071 21.9721L264.791 25.2221C264.781 25.3477 264.724 25.4648 264.631 25.5501C264.539 25.6354 264.417 25.6825 264.291 25.6821H257.101C256.969 25.6821 256.842 25.7348 256.748 25.8286C256.654 25.9223 256.601 26.0495 256.601 26.1821Z" fill="#9CA3AF"/>
<path d="M290.351 41.1821H300.101C300.234 41.1821 300.361 41.2348 300.455 41.3286C300.549 41.4223 300.601 41.5495 300.601 41.6821V44.9321C300.601 45.0647 300.549 45.1919 300.455 45.2857C300.361 45.3795 300.234 45.4321 300.101 45.4321H284.101C283.969 45.4321 283.842 45.3795 283.748 45.2857C283.654 45.1919 283.601 45.0647 283.601 44.9321V3.68213C283.601 3.54952 283.654 3.42234 283.748 3.32858C283.842 3.23481 283.969 3.18213 284.101 3.18213H289.351C289.484 3.18213 289.611 3.23481 289.705 3.32858C289.799 3.42234 289.851 3.54952 289.851 3.68213V40.6821C289.851 40.8147 289.904 40.9419 289.998 41.0357C290.092 41.1295 290.219 41.1821 290.351 41.1821Z" fill="#9CA3AF"/>
<path d="M310.228 3.19677L305.008 3.18766C304.804 3.1873 304.638 3.35267 304.638 3.55701L304.565 45.0569C304.565 45.2613 304.73 45.4272 304.934 45.4276L310.154 45.4367C310.359 45.4371 310.525 45.2717 310.525 45.0674L310.598 3.56741C310.598 3.36307 310.433 3.19712 310.228 3.19677Z" fill="#9CA3AF"/>
<path d="M331.011 35.7121C331.205 36.5988 331.398 36.5988 331.591 35.7121L338.561 3.73213C338.595 3.57687 338.681 3.43782 338.805 3.33786C338.928 3.2379 339.082 3.18298 339.241 3.18213H343.951C344.114 3.18211 344.27 3.24605 344.386 3.36017C344.502 3.47429 344.569 3.62943 344.571 3.79213L345.311 44.9521C345.311 45.0794 345.261 45.2015 345.171 45.2915C345.081 45.3816 344.959 45.4321 344.831 45.4321H340.981C340.835 45.4321 340.695 45.3742 340.592 45.271C340.489 45.1679 340.431 45.028 340.431 44.8821C340.425 35.8021 340.288 26.7388 340.021 17.6921C340.015 17.5255 339.971 17.3788 339.891 17.2521C339.691 16.9321 339.548 16.9588 339.461 17.3321L333.191 44.7221C333.155 44.8832 333.066 45.0279 332.94 45.1344C332.814 45.2408 332.656 45.3032 332.491 45.3121L330.111 45.4721C329.944 45.4837 329.778 45.4355 329.644 45.3364C329.51 45.2372 329.417 45.0938 329.381 44.9321L323.131 17.6621C323.065 17.3621 322.965 17.3521 322.831 17.6321C322.538 18.2455 322.391 18.9088 322.391 19.6221C322.351 28.0221 322.235 36.4221 322.041 44.8221C322.039 44.9848 321.972 45.14 321.856 45.2541C321.74 45.3682 321.584 45.4322 321.421 45.4321H317.761C317.684 45.4321 317.608 45.4168 317.537 45.387C317.466 45.3573 317.402 45.3136 317.348 45.2587C317.294 45.2038 317.251 45.1387 317.222 45.0672C317.194 44.9956 317.18 44.9191 317.181 44.8421L317.971 3.74213C317.976 3.59186 318.039 3.44947 318.145 3.34499C318.251 3.24052 318.393 3.18213 318.541 3.18213H323.351C323.501 3.18274 323.646 3.23357 323.762 3.32626C323.879 3.41895 323.959 3.54798 323.991 3.69213L331.011 35.7121Z" fill="#9CA3AF"/>
<path d="M365.241 34.9321H357.411C357.317 34.9326 357.226 34.9657 357.153 35.0259C357.08 35.086 357.03 35.1695 357.011 35.2621L355.071 45.1021C355.053 45.1948 355.003 45.2783 354.93 45.3384C354.857 45.3985 354.766 45.4316 354.671 45.4321H349.881C349.82 45.4321 349.759 45.4183 349.704 45.3917C349.648 45.365 349.6 45.3263 349.561 45.2783C349.523 45.2302 349.496 45.1742 349.482 45.1143C349.468 45.0544 349.468 44.9921 349.481 44.9321L358.271 3.50213C358.292 3.4113 358.343 3.33013 358.415 3.27197C358.488 3.21381 358.578 3.18213 358.671 3.18213H363.841C363.935 3.18213 364.025 3.21381 364.098 3.27197C364.17 3.33013 364.221 3.4113 364.241 3.50213L373.031 44.9321C373.045 44.9921 373.045 45.0544 373.031 45.1143C373.017 45.1742 372.99 45.2302 372.952 45.2783C372.913 45.3263 372.864 45.365 372.809 45.3917C372.754 45.4183 372.693 45.4321 372.631 45.4321H367.851C367.756 45.4312 367.663 45.3967 367.59 45.3345C367.517 45.2724 367.468 45.1866 367.451 45.0921L365.641 35.2721C365.625 35.1776 365.576 35.0918 365.503 35.0297C365.43 34.9676 365.337 34.9331 365.241 34.9321ZM360.231 17.5821C359.611 21.7821 358.761 25.8721 357.961 30.0321C357.949 30.0936 357.951 30.1569 357.967 30.2175C357.983 30.2781 358.012 30.3344 358.052 30.3823C358.092 30.4303 358.143 30.4686 358.2 30.4945C358.257 30.5204 358.319 30.5333 358.381 30.5321L364.141 30.3921C364.201 30.3904 364.259 30.3756 364.313 30.349C364.366 30.3223 364.413 30.2843 364.45 30.2376C364.487 30.191 364.514 30.1368 364.528 30.0788C364.542 30.0209 364.543 29.9606 364.531 29.9021L361.581 13.6421C361.508 13.2355 361.401 13.2255 361.261 13.6121C360.768 14.9188 360.425 16.2421 360.231 17.5821Z" fill="#9CA3AF"/>
<path d="M1.0412 18.7022L0.871198 13.9622C0.868504 13.8935 0.879701 13.8251 0.904122 13.7609C0.928544 13.6967 0.965685 13.6381 1.01331 13.5886C1.06094 13.5391 1.11808 13.4997 1.18129 13.4728C1.24451 13.4459 1.31251 13.4321 1.3812 13.4322C17.2879 13.4455 33.2012 13.4388 49.1212 13.4122C53.3345 13.4055 56.4145 13.8755 58.3612 14.8222C69.0212 20.0222 66.3412 36.5822 54.2912 37.6322C47.3712 38.2322 42.4312 34.0622 41.0812 27.3822C41.0693 27.3192 41.0712 27.2544 41.0869 27.1925C41.1026 27.1305 41.1317 27.073 41.1719 27.0241C41.2122 26.9753 41.2626 26.9362 41.3196 26.91C41.3766 26.8837 41.4386 26.8708 41.5012 26.8722L46.6312 26.9322C46.9327 26.9382 47.223 27.0637 47.4412 27.2822C47.8212 27.6688 48.1545 28.0955 48.4412 28.5622C52.7912 35.7022 62.1512 27.4322 56.9912 22.1922C55.6845 20.8655 54.0979 20.2022 52.2312 20.2022L1.4512 20.1722C1.29448 20.1724 1.14371 20.1122 1.03013 20.0042C0.916561 19.8963 0.848906 19.7487 0.841199 19.5922C0.834532 19.4788 0.857865 19.3688 0.911199 19.2622C1.00453 19.0888 1.04786 18.9022 1.0412 18.7022Z" fill="#9CA3AF"/>
<path d="M77.1013 74.2721V80.0921C77.1013 80.2486 77.0392 80.3987 76.9285 80.5093C76.8179 80.62 76.6678 80.6821 76.5113 80.6821H1.44132C1.28484 80.6821 1.13477 80.62 1.02412 80.5093C0.913478 80.3987 0.851318 80.2486 0.851318 80.0921V27.2721C0.851318 27.1156 0.913478 26.9656 1.02412 26.8549C1.13477 26.7443 1.28484 26.6821 1.44132 26.6821H7.01132C7.1678 26.6821 7.31787 26.7443 7.42851 26.8549C7.53916 26.9656 7.60132 27.1156 7.60132 27.2721V73.0921C7.60132 73.1696 7.61658 73.2463 7.64623 73.3179C7.67588 73.3895 7.71934 73.4545 7.77412 73.5093C7.82891 73.5641 7.89395 73.6076 7.96553 73.6372C8.03712 73.6669 8.11384 73.6821 8.19132 73.6821H76.5113C76.6678 73.6821 76.8179 73.7443 76.9285 73.8549C77.0392 73.9656 77.1013 74.1156 77.1013 74.2721Z" fill="#E5E7EB"/>
<path d="M68.1313 60.8021L67.9413 66.8321C67.9387 66.9259 67.8996 67.0149 67.8324 67.0802C67.7652 67.1456 67.6751 67.1822 67.5813 67.1821H14.7013C14.6058 67.1821 14.5143 67.1442 14.4467 67.0767C14.3792 67.0092 14.3413 66.9176 14.3413 66.8221L14.3513 27.0421C14.3513 26.9467 14.3892 26.8551 14.4567 26.7876C14.5243 26.7201 14.6158 26.6821 14.7113 26.6821H20.4913C20.5868 26.6821 20.6784 26.7201 20.7459 26.7876C20.8134 26.8551 20.8513 26.9467 20.8513 27.0421V60.0721C20.8513 60.1676 20.8892 60.2592 20.9567 60.3267C21.0243 60.3942 21.1158 60.4321 21.2113 60.4321H67.7713C67.8194 60.4321 67.8671 60.4417 67.9114 60.4605C67.9558 60.4792 67.9959 60.5066 68.0295 60.5411C68.063 60.5756 68.0893 60.6165 68.1068 60.6613C68.1243 60.7061 68.1326 60.754 68.1313 60.8021Z" fill="#9CA3AF"/>
<path d="M128.681 74.5422C128.562 74.542 128.445 74.5758 128.344 74.6395C128.243 74.7033 128.162 74.7944 128.111 74.9022L127.071 76.9922C127.002 77.1385 126.888 77.2595 126.746 77.3383C126.605 77.4172 126.442 77.45 126.281 77.4322L125.931 77.4022C125.851 77.3953 125.774 77.3691 125.706 77.3259C125.638 77.2827 125.581 77.2238 125.541 77.1541C125.501 77.0844 125.478 77.006 125.475 76.9256C125.471 76.8452 125.487 76.7651 125.521 76.6922L130.271 66.5122C130.745 65.4855 131.221 65.4855 131.701 66.5122L136.461 76.7822C136.708 77.3088 136.541 77.5289 135.961 77.4422L135.441 77.3622C135.289 77.3375 135.145 77.2739 135.024 77.1776C134.903 77.0812 134.809 76.9554 134.751 76.8122L134.041 75.0622C133.989 74.9319 133.899 74.8199 133.783 74.74C133.668 74.66 133.532 74.6156 133.391 74.6122L128.681 74.5422ZM129.011 72.7122C128.989 72.7651 128.981 72.8227 128.987 72.8796C128.993 72.9366 129.014 72.991 129.047 73.0379C129.08 73.0848 129.124 73.1226 129.176 73.1479C129.227 73.1731 129.284 73.1849 129.341 73.1822L132.741 73.0822C132.799 73.0813 132.855 73.066 132.905 73.0376C132.954 73.0092 132.996 72.9687 133.026 72.9198C133.056 72.8709 133.073 72.8152 133.076 72.7579C133.078 72.7006 133.067 72.6436 133.041 72.5922L131.221 68.8922C131.192 68.8333 131.147 68.784 131.091 68.7501C131.035 68.7163 130.97 68.6995 130.905 68.7016C130.839 68.7037 130.776 68.7247 130.722 68.7621C130.668 68.7994 130.626 68.8516 130.601 68.9122L129.011 72.7122Z" fill="#9CA3AF"/>
<path d="M190.481 71.9322C190.481 73.4492 189.879 74.9041 188.806 75.9768C187.733 77.0495 186.278 77.6522 184.761 77.6522C183.244 77.6522 181.789 77.0495 180.717 75.9768C179.644 74.9041 179.041 73.4492 179.041 71.9322C179.041 70.4151 179.644 68.9602 180.717 67.8875C181.789 66.8148 183.244 66.2122 184.761 66.2122C186.278 66.2122 187.733 66.8148 188.806 67.8875C189.879 68.9602 190.481 70.4151 190.481 71.9322ZM189.081 71.9322C189.081 70.8183 188.639 69.75 187.851 68.9623C187.063 68.1747 185.995 67.7322 184.881 67.7322C183.767 67.7322 182.699 68.1747 181.911 68.9623C181.124 69.75 180.681 70.8183 180.681 71.9322C180.681 73.0461 181.124 74.1144 181.911 74.902C182.699 75.6897 183.767 76.1322 184.881 76.1322C185.995 76.1322 187.063 75.6897 187.851 74.902C188.639 74.1144 189.081 73.0461 189.081 71.9322Z" fill="#9CA3AF"/>
<path d="M206.611 72.7821L204.451 72.7221C204.314 72.7187 204.182 72.6665 204.08 72.5749C203.977 72.4833 203.91 72.3583 203.891 72.2221L203.851 71.9721C203.841 71.9056 203.846 71.8377 203.864 71.7731C203.883 71.7084 203.915 71.6485 203.958 71.5973C204.002 71.5461 204.056 71.5049 204.117 71.4764C204.178 71.4479 204.244 71.4328 204.311 71.4321H208.221C208.302 71.4321 208.382 71.4482 208.457 71.4795C208.532 71.5107 208.599 71.5566 208.656 71.6143C208.713 71.672 208.758 71.7404 208.788 71.8156C208.818 71.8907 208.833 71.9711 208.831 72.0521L208.781 75.1221C208.778 75.28 208.743 75.4358 208.678 75.5802C208.612 75.7245 208.518 75.8544 208.401 75.9621C206.788 77.4421 205.001 77.9788 203.041 77.5721C194.751 75.8321 198.931 62.4821 207.491 67.0921C208.041 67.3821 208.361 67.8621 207.991 68.4221C207.915 68.5395 207.794 68.6212 207.655 68.6493C207.516 68.6774 207.371 68.6497 207.251 68.5721C199.141 63.4321 197.071 79.0921 206.401 75.8021C206.571 75.7421 206.719 75.6343 206.827 75.4921C206.936 75.35 207 75.1796 207.011 75.0021L207.141 73.3621C207.147 73.2887 207.137 73.215 207.113 73.1455C207.089 73.0759 207.051 73.0121 207.001 72.9578C206.952 72.9034 206.892 72.8598 206.825 72.8296C206.757 72.7994 206.685 72.7832 206.611 72.7821Z" fill="#9CA3AF"/>
<path d="M225.851 76.5521C225.291 73.4621 222.171 75.0421 220.131 74.4721C219.991 74.4356 219.843 74.4463 219.711 74.5025C219.579 74.5586 219.47 74.6571 219.401 74.7821L218.171 77.0321C218.09 77.1807 217.965 77.3001 217.812 77.3737C217.66 77.4472 217.488 77.4712 217.321 77.4421L217.061 77.4021C216.981 77.3884 216.904 77.3562 216.838 77.3079C216.772 77.2597 216.718 77.1968 216.68 77.1241C216.642 77.0514 216.622 76.971 216.62 76.8891C216.619 76.8072 216.636 76.7261 216.671 76.6521L221.391 66.5921C221.891 65.5321 222.391 65.5321 222.891 66.5921L227.691 76.8021C227.958 77.3754 227.785 77.5854 227.171 77.4321L226.501 77.2621C226.337 77.2174 226.189 77.127 226.074 77.0013C225.958 76.8756 225.881 76.7199 225.851 76.5521ZM220.231 72.7321C220.208 72.7847 220.198 72.8424 220.202 72.9C220.207 72.9575 220.226 73.0129 220.258 73.0609C220.29 73.1089 220.334 73.148 220.385 73.1744C220.437 73.2009 220.494 73.2138 220.551 73.2121L223.861 73.1621C223.919 73.1613 223.975 73.1459 224.025 73.1175C224.075 73.0891 224.116 73.0486 224.146 72.9997C224.176 72.9508 224.193 72.8951 224.196 72.8378C224.199 72.7806 224.187 72.7236 224.161 72.6721L222.451 69.0321C222.424 68.9728 222.379 68.9229 222.324 68.8882C222.268 68.8535 222.204 68.8356 222.138 68.8367C222.073 68.8377 222.009 68.8577 221.954 68.8941C221.9 68.9306 221.857 68.982 221.831 69.0421L220.231 72.7321Z" fill="#9CA3AF"/>
<path d="M145.171 66.5622C158.271 63.8922 156.931 80.5822 145.061 77.2222C144.929 77.1851 144.813 77.1045 144.73 76.9926C144.647 76.8807 144.602 76.7436 144.601 76.6022V67.2522C144.601 67.0887 144.658 66.9302 144.762 66.8042C144.866 66.6781 145.011 66.5925 145.171 66.5622ZM151.301 68.5922C149.868 67.8788 148.331 67.6788 146.691 67.9922C146.553 68.0161 146.429 68.0901 146.341 68.2004C146.252 68.3107 146.206 68.4498 146.211 68.5922L146.381 75.2622C146.383 75.4095 146.437 75.5521 146.533 75.6666C146.63 75.781 146.763 75.8606 146.911 75.8922C150.971 76.7622 154.541 73.8222 152.381 69.6422C152.141 69.187 151.763 68.8195 151.301 68.5922Z" fill="#9CA3AF"/>
<path d="M166.421 74.6321C166.728 75.4655 167.021 75.4621 167.301 74.6221C167.811 73.1121 169.911 66.2121 171.741 66.4421C171.8 66.449 171.856 66.4698 171.906 66.503C171.955 66.5362 171.996 66.5808 172.025 66.6333C172.054 66.6857 172.071 66.7446 172.074 66.8052C172.076 66.8657 172.065 66.9263 172.041 66.9821L167.621 77.1021C167.088 78.3221 166.551 78.3221 166.011 77.1021L161.591 67.1621C161.564 67.1007 161.549 67.0342 161.547 66.9667C161.546 66.8992 161.558 66.8318 161.583 66.7686C161.609 66.7054 161.646 66.6475 161.694 66.5983C161.741 66.5492 161.798 66.5097 161.861 66.4821C163.621 65.7021 165.921 73.2721 166.421 74.6321Z" fill="#9CA3AF"/>
<path d="M235.671 67.2521C235.669 67.1488 235.686 67.046 235.723 66.9497C235.76 66.8534 235.815 66.7655 235.886 66.691C235.957 66.6166 236.041 66.5572 236.135 66.5161C236.229 66.4751 236.329 66.4534 236.431 66.4521C238.391 66.4321 240.821 66.1021 242.541 66.9621C250.041 70.6821 244.111 79.3921 236.331 77.2021C236.204 77.164 236.091 77.0864 236.01 76.9804C235.929 76.8744 235.884 76.7454 235.881 76.6121L235.671 67.2521ZM237.421 68.9721L237.341 74.4121C237.321 75.7588 237.975 76.3221 239.301 76.1021C247.611 74.7521 243.941 66.0621 237.981 68.1921C237.819 68.2509 237.679 68.3569 237.579 68.4963C237.479 68.6356 237.424 68.8016 237.421 68.9721Z" fill="#9CA3AF"/>
<path d="M265.171 71.9621C265.171 73.4765 264.57 74.9288 263.499 75.9997C262.428 77.0705 260.976 77.6721 259.461 77.6721C257.947 77.6721 256.494 77.0705 255.424 75.9997C254.353 74.9288 253.751 73.4765 253.751 71.9621C253.751 70.4477 254.353 68.9953 255.424 67.9245C256.494 66.8537 257.947 66.2521 259.461 66.2521C260.976 66.2521 262.428 66.8537 263.499 67.9245C264.57 68.9953 265.171 70.4477 265.171 71.9621ZM259.597 76.26C260.129 76.2433 260.652 76.1148 261.136 75.8819C261.62 75.6489 262.056 75.3161 262.42 74.9024C262.783 74.4887 263.066 74.0022 263.253 73.4708C263.44 72.9393 263.527 72.3732 263.509 71.8049C263.491 71.2365 263.369 70.677 263.149 70.1583C262.929 69.6397 262.616 69.1719 262.227 68.7818C261.839 68.3918 261.383 68.087 260.885 67.8849C260.387 67.6829 259.857 67.5875 259.325 67.6042C258.794 67.6209 258.271 67.7494 257.786 67.9823C257.302 68.2152 256.866 68.548 256.503 68.9617C256.139 69.3754 255.856 69.8619 255.669 70.3934C255.482 70.9249 255.395 71.4909 255.413 72.0593C255.431 72.6276 255.553 73.1871 255.773 73.7058C255.993 74.2245 256.306 74.6922 256.695 75.0823C257.084 75.4724 257.54 75.7771 258.038 75.9792C258.536 76.1813 259.066 76.2767 259.597 76.26Z" fill="#9CA3AF"/>
</svg>
