<svg width="162" height="95" viewBox="0 0 162 95" fill="none" xmlns="http://www.w3.org/2000/svg">
<path d="M8.18301 68.3794L8.19301 82.0594C8.19303 82.185 8.14384 82.3056 8.05597 82.3954C7.9681 82.4851 7.84857 82.5368 7.72301 82.5394L2.38301 82.7194C2.3257 82.7208 2.26871 82.7106 2.21538 82.6896C2.16205 82.6686 2.11346 82.6371 2.07246 82.5971C2.03147 82.557 1.9989 82.5092 1.97667 82.4563C1.95443 82.4035 1.94299 82.3467 1.94301 82.2894V48.8294C1.94301 48.4761 1.85634 48.1428 1.683 47.8294C0.729672 46.1294 0.183006 44.2994 0.0430056 42.3394C0.0328928 42.2068 0.0711785 42.0753 0.150527 41.9701C0.229875 41.865 0.344704 41.7935 0.473006 41.7694C10.513 39.8294 23.753 34.3194 28.573 47.6294C31.693 56.2194 29.443 68.8894 19.383 71.3394C15.523 72.2728 11.923 71.2294 8.583 68.2094C8.31634 67.9694 8.18301 68.0261 8.18301 68.3794ZM8.45301 59.4794C8.79301 66.0594 16.843 68.6294 20.743 63.2894C27.103 54.5894 21.973 39.6294 8.89301 45.6894C8.75836 45.7492 8.64303 45.8463 8.55999 45.97C8.47695 46.0937 8.42951 46.2389 8.42301 46.3894C8.21634 50.7494 8.22634 55.1128 8.45301 59.4794Z" fill="#9CA3AF"/>
<path d="M38.3531 51.9694C40.4739 51.9694 42.1931 50.2502 42.1931 48.1294C42.1931 46.0087 40.4739 44.2894 38.3531 44.2894C36.2323 44.2894 34.5131 46.0087 34.5131 48.1294C34.5131 50.2502 36.2323 51.9694 38.3531 51.9694Z" fill="#9CA3AF"/>
<path d="M55.183 73.3894L55.193 82.0094C55.1943 82.089 55.1796 82.1681 55.1495 82.242C55.1194 82.316 55.0747 82.3833 55.0179 82.4401C54.9612 82.4968 54.8935 82.5419 54.8188 82.5727C54.7441 82.6035 54.664 82.6194 54.583 82.6194L49.353 82.6594C49.2443 82.6594 49.14 82.6162 49.0631 82.5393C48.9862 82.4624 48.943 82.3581 48.943 82.2494V48.8194C48.9434 48.6469 48.9891 48.4781 49.0752 48.3304C49.1614 48.1827 49.2849 48.0616 49.433 47.9794C54.5264 45.1394 60.003 44.0694 65.863 44.7694C81.783 46.6494 80.023 76.8794 63.183 76.6394C60.4764 76.6061 57.943 75.4661 55.583 73.2194C55.3164 72.9661 55.183 73.0227 55.183 73.3894ZM65.973 50.5494C62.5997 49.1827 59.2464 49.2694 55.913 50.8094C55.7592 50.8802 55.6297 50.9948 55.5407 51.1389C55.4518 51.283 55.4074 51.4501 55.413 51.6194C55.513 55.7594 55.4797 59.7527 55.313 63.5994C54.913 72.8094 66.453 74.1294 69.653 65.2494C71.0597 61.3694 70.7797 57.3594 68.813 53.2194C68.213 51.9594 67.2664 51.0694 65.973 50.5494Z" fill="#9CA3AF"/>
<path d="M96.3331 74.0894C81.6731 83.3994 71.9731 64.3694 85.2731 57.9094C88.0464 56.5628 91.4798 55.9261 95.5731 55.9994C95.7123 56.0014 95.8478 55.9533 95.9558 55.8637C96.0637 55.774 96.1372 55.6485 96.1631 55.5094C97.6431 47.2894 87.2231 48.8094 83.1431 51.1494C83.0828 51.184 83.0154 51.2044 82.946 51.2091C82.8767 51.2139 82.8071 51.2029 82.7426 51.1769C82.6782 51.1509 82.6204 51.1106 82.5737 51.0591C82.527 51.0076 82.4926 50.9462 82.4731 50.8794L81.4231 47.5194C81.376 47.3689 81.3844 47.2064 81.4468 47.0614C81.5091 46.9165 81.6214 46.7987 81.7631 46.7294C87.8331 43.7894 98.0531 42.8594 101.593 49.8394C104.283 55.1294 102.973 68.3594 102.933 74.9294C102.933 75.1455 102.854 75.3543 102.71 75.5178C102.567 75.6812 102.369 75.7882 102.153 75.8194C100.173 76.0928 98.4864 75.5428 97.0931 74.1694C96.9936 74.0731 96.8646 74.0129 96.7269 73.9984C96.5892 73.9839 96.4505 74.016 96.3331 74.0894ZM95.0231 60.9494C89.8031 60.1494 84.6231 63.1494 85.9031 69.0294C86.2298 70.5161 87.1498 71.3461 88.6631 71.5194C94.5531 72.1794 98.8331 66.5694 95.8031 61.4694C95.7184 61.3316 95.6048 61.2137 95.4701 61.1239C95.3355 61.0341 95.183 60.9746 95.0231 60.9494Z" fill="#9CA3AF"/>
<path d="M41.1544 55.3544L35.3544 55.3645C35.2053 55.3648 35.0846 55.4859 35.0849 55.635L35.1211 76.395C35.1213 76.5441 35.2424 76.6647 35.3916 76.6645L41.1915 76.6544C41.3407 76.6541 41.4613 76.533 41.4611 76.3839L41.4248 55.6239C41.4246 55.4748 41.3035 55.3541 41.1544 55.3544Z" fill="#9CA3AF"/>
<path d="M103.853 90.6894C109.283 94.7594 116.313 93.7694 118.523 86.7494C118.623 86.4294 118.67 86.4361 118.663 86.7694C118.353 98.1094 106.043 95.4894 100.213 91.1894C93.8431 86.4894 87.4131 86.6294 82.6831 93.6194C82.4431 93.9727 82.2464 93.9528 82.0931 93.5594L79.7631 87.4394C79.7046 87.2904 79.6933 87.1269 79.7309 86.9713C79.7685 86.8157 79.853 86.6753 79.9731 86.5694C88.7431 78.7694 96.4431 85.1294 103.853 90.6894Z" fill="#9CA3AF"/>
<path d="M138.041 0C138.041 0 132.677 18.2762 129.897 30.6662L99.3429 24.6694L138.041 0Z" fill="#D1D5DB"/>
<path d="M138.041 0C138.041 0 154.187 26.6557 161.16 37.8891L129.897 30.6662C132.677 18.2762 138.041 0 138.041 0Z" fill="#9CA3AF"/>
<path d="M129.897 30.6662L161.16 37.8891C148 51.4624 132.935 68.4697 119.621 81.8963C122.488 70.6363 127.91 42.1062 129.897 30.6662Z" fill="#D1D5DB"/>
<path d="M99.3429 24.6694L129.897 30.6662C127.91 42.1062 122.488 70.6363 119.621 81.8963L99.3429 24.6694Z" fill="#9CA3AF"/>
</svg>
